<?xml version="1.0" encoding="UTF-8"?>
<svg width="65px" height="65px" viewBox="0 0 65 65" version="1.1" xmlns="http://www.w3.org/2000/svg" xmlns:xlink="http://www.w3.org/1999/xlink">
    <!-- Generator: Sketch 49.3 (51167) - http://www.bohemiancoding.com/sketch -->
    <title>Group 6</title>
    <desc>Created with Sketch.</desc>
    <defs></defs>
    <g id="Page-1" stroke="none" stroke-width="1" fill="none" fill-rule="evenodd">
        <g id="Desktop-HD-Copy-3" transform="translate(-150.000000, -1950.000000)" fill="#0A8A93">
            <g id="Group-12" transform="translate(0.000000, 1359.000000)">
                <g id="Group-22" transform="translate(150.000000, 591.000000)">
                    <g id="Group-6">
                        <path d="M60.4719958,36.8798828 L39.5287927,36.8798828 C38.3737731,36.8798828 37.4373669,37.8162891 37.4373669,38.9713086 L37.4373669,60.3886816 C35.8714001,60.6641699 34.2750915,60.8081348 32.654154,60.8168945 C32.6021032,60.8171484 32.5527185,60.8172754 32.5007946,60.8172754 C30.817904,60.8172754 29.1675134,60.6682324 27.5621911,60.3828418 L27.5621911,38.9714355 C27.5621911,37.816416 26.6257849,36.8800098 25.4707653,36.8800098 L4.52426142,36.8800098 C4.32113642,35.5831836 4.20472041,34.2583008 4.18555048,32.9103125 C4.16269892,31.2888672 4.27619502,29.6883691 4.51753291,28.1202441 L25.4708923,28.1202441 C26.6259118,28.1202441 27.5623181,27.1838379 27.5623181,26.0288184 L27.5623181,5.12395508 C27.5623181,4.94977539 27.5385778,4.7815625 27.4985876,4.61982422 C29.1312048,4.33125977 30.801527,4.18285156 32.4957165,4.18285156 C32.6443786,4.18285156 32.7939294,4.18399414 32.9429724,4.18615234 C34.4953552,4.20989258 36.0168884,4.36160156 37.4991931,4.62744141 C37.4603454,4.78689453 37.4373669,4.95256836 37.4373669,5.12395508 L37.4373669,26.0288184 C37.4373669,27.1838379 38.3737731,28.1202441 39.5287927,28.1202441 L60.4745349,28.1202441 C60.7120642,29.6365723 60.8307653,31.1907324 60.8156579,32.7738379 C60.8025817,34.1525488 60.6845153,35.5246582 60.4719958,36.8798828 Z M56.9660583,46.7508691 C56.7791833,47.070791 56.6807946,47.4347656 56.6807946,47.8053418 L56.6807946,50.6522656 L45.1564977,41.0627344 L59.4877282,41.0627344 C58.860072,43.0401563 58.0172302,44.9500391 56.9660583,46.7508691 Z M54.2187927,57.5752734 L46.1585388,57.5752734 C45.8317614,57.5752734 45.5095544,57.6518262 45.2175622,57.7989648 C44.0441345,58.3900586 42.8439196,58.8933008 41.6200915,59.3117383 L41.6200915,43.5615527 L56.5256579,55.9647461 C56.1781872,56.9031836 55.2765661,57.5752734 54.2187927,57.5752734 Z M23.3795935,59.299043 C19.0621716,57.8185156 15.2039392,55.3196973 12.0989196,52.0898828 L23.3795935,42.7892969 L23.3795935,59.299043 Z M9.42846064,48.8703516 C7.74455439,46.5088965 6.41281611,43.8808398 5.51271845,41.0626074 L18.898529,41.0626074 L9.42846064,48.8703516 Z M9.00989619,16.6716113 L18.7402185,23.9373926 L5.49215205,23.9373926 C6.30401728,21.3641797 7.48544306,18.9218555 9.00989619,16.6716113 Z M12.4881579,12.4654004 C15.6126013,9.34425781 19.3269958,7.04831055 23.3795935,5.67518555 L23.3795935,22.1816309 L11.605072,13.3893652 C11.892113,13.0762988 12.1856286,12.7676758 12.4881579,12.4654004 Z M41.6203454,5.69486328 C45.9936267,7.190625 49.8868981,9.72994141 53.0052477,13.010918 L41.6203454,21.6488086 L41.6203454,5.69486328 Z M55.6595837,16.247334 C57.3022302,18.5797168 58.6019763,21.1681641 59.485697,23.9373926 L45.5237731,23.9373926 L55.6595837,16.247334 Z M33.0067075,0.00402478808 C24.1368722,-0.13321162 15.8021445,3.24323565 9.53218268,9.50609085 C5.0652094,13.9681149 2.06441796,19.4810576 0.752484184,25.4892447 C0.73737676,25.5459927 0.724173633,25.6032486 0.713890428,25.6617741 C0.209759498,28.0328789 -0.0317053798,30.4800288 0.00333368763,32.9694541 C0.253431379,50.6677456 14.8144491,65.000127 32.5006722,65 C32.5590707,65 32.6179769,64.999873 32.6765023,64.9996191 C37.5683878,64.9734668 42.2654002,63.8831927 46.6470609,61.7579962 L54.2188003,61.7579962 C57.882668,61.7579962 60.8635278,58.777262 60.8635278,55.1132657 L60.8635278,48.360879 C63.5186258,43.6204466 64.9465948,38.2578165 64.9982647,32.8135555 C65.1674932,14.9940237 50.8162022,0.275831586 33.0067075,0.00402478808 Z" id="Page-1"></path>
                    </g>
                </g>
            </g>
        </g>
    </g>
</svg>